<!-- <?xml version="1.0" encoding="utf-8"?> -->
<!-- Generator: Adobe Illustrator 25.2.0, SVG Export Plug-In . SVG Version: 6.00 Build 0)  -->
<svg version="1.1" id="Layer_1" xmlns="http://www.w3.org/2000/svg" xmlns:xlink="http://www.w3.org/1999/xlink" x="0px" y="0px"
	 viewBox="0 0 126.1 38.9" style="enable-background:new 0 0 126.1 38.9;" xml:space="preserve">
<style type="text/css">
	.st0{fill:#121F3E;}
	.st1{fill:#B4FF00;}
</style>
<g>
	<g>
		<path class="st0" d="M48.3,12.8h2.6v13.4h-2.6V12.8z"/>
		<path class="st0" d="M62.2,12.8v2.5h-3.6v10.8H56V15.3h-3.6v-2.5H62.2z"/>
		<path class="st0" d="M69.3,26.4c-2,0-3.7-0.7-5-2c-1.3-1.3-2-3-2-4.9c0-2,0.7-3.6,2-4.9c1.3-1.3,3-2,5-2c1.2,0,2.3,0.3,3.3,0.9
			c1,0.6,1.8,1.3,2.4,2.3L72.8,17c-0.3-0.6-0.8-1.1-1.4-1.4c-0.6-0.3-1.3-0.5-2.1-0.5c-1.3,0-2.3,0.4-3.1,1.2s-1.2,1.9-1.2,3.2
			c0,1.3,0.4,2.3,1.2,3.1c0.8,0.8,1.8,1.2,3.1,1.2c0.8,0,1.4-0.2,2.1-0.5s1.1-0.8,1.4-1.4l2.3,1.3c-0.6,1-1.4,1.7-2.4,2.3
			C71.6,26.2,70.5,26.4,69.3,26.4z"/>
		<path class="st0" d="M82,16.4c1,0,1.9,0.4,2.6,1c0.7,0.7,1,1.7,1,2.9v5.9h-2.5v-5.5c0-0.6-0.2-1.1-0.5-1.5
			c-0.3-0.3-0.8-0.5-1.4-0.5c-0.6,0-1.2,0.2-1.5,0.6s-0.6,1-0.6,1.8v5.1h-2.5V12.8h2.5v4.9C79.8,16.8,80.7,16.4,82,16.4z"/>
		<path class="st0" d="M90.2,18.3c0.2-0.6,0.6-1.1,1.1-1.4c0.5-0.3,1.1-0.5,1.8-0.5v2.8c-0.8-0.1-1.4,0.1-2,0.5
			c-0.6,0.4-0.9,1-0.9,2v4.6h-2.5v-9.5h2.5C90.2,16.6,90.2,18.3,90.2,18.3z"/>
		<path class="st0" d="M102.3,25c-1,1-2.2,1.5-3.6,1.5c-1.4,0-2.6-0.5-3.6-1.5c-1-1-1.5-2.2-1.5-3.6s0.5-2.6,1.5-3.6
			c1-1,2.2-1.5,3.6-1.5s2.6,0.5,3.6,1.5c1,1,1.5,2.2,1.5,3.6C103.7,22.8,103.2,24,102.3,25z M96.8,23.3c0.5,0.5,1.1,0.7,1.8,0.7
			s1.4-0.2,1.8-0.7c0.5-0.5,0.7-1.1,0.7-1.9s-0.2-1.4-0.7-1.9c-0.5-0.5-1.1-0.7-1.8-0.7s-1.3,0.2-1.8,0.7c-0.5,0.5-0.7,1.1-0.7,1.9
			S96.3,22.8,96.8,23.3z"/>
		<path class="st0" d="M110.8,16.4c1,0,1.9,0.4,2.6,1c0.7,0.7,1,1.7,1,2.9v5.9h-2.5v-5.5c0-0.6-0.2-1.1-0.5-1.5
			c-0.3-0.3-0.8-0.5-1.4-0.5c-0.6,0-1.2,0.2-1.5,0.6s-0.6,1-0.6,1.8v5.1h-2.5v-9.5h2.5v1.1C108.5,16.8,109.5,16.4,110.8,16.4z"/>
		<path class="st0" d="M124.6,25c-1,1-2.2,1.5-3.6,1.5c-1.4,0-2.6-0.5-3.6-1.5c-1-1-1.5-2.2-1.5-3.6s0.5-2.6,1.5-3.6
			c1-1,2.2-1.5,3.6-1.5s2.6,0.5,3.6,1.5c1,1,1.5,2.2,1.5,3.6C126.1,22.8,125.6,24,124.6,25z M119.2,23.3c0.5,0.5,1.1,0.7,1.8,0.7
			s1.4-0.2,1.8-0.7c0.5-0.5,0.7-1.1,0.7-1.9s-0.2-1.4-0.7-1.9c-0.5-0.5-1.1-0.7-1.8-0.7s-1.3,0.2-1.8,0.7c-0.5,0.5-0.7,1.1-0.7,1.9
			C118.4,22.2,118.7,22.8,119.2,23.3z"/>
	</g>
	<g>
		<g id="Group_130">
			<path id="Ellipse_20" class="st0" d="M35.2,30.9C28.9,39.6,16.7,41.5,8,35.2S-2.6,16.7,3.7,8c3.8-5.3,10-8.3,16.5-8
				c1.7,0.1,2.9,1.5,2.9,3.1C23,4.7,21.7,6,20,6C12.5,5.7,6.3,11.5,6,19s5.5,13.7,13,14c4.5,0.2,8.8-1.9,11.4-5.6
				c1-1.3,2.9-1.6,4.2-0.7C35.9,27.7,36.2,29.6,35.2,30.9z"/>
		</g>
		<g id="Group_131">
			<path id="Line_22" class="st1" d="M20.9,26.1c-0.7,0-1.4-0.3-1.9-0.8L11.7,18c-1.1-1.1-1.1-2.8,0-3.9l0,0c1.1-1.1,2.8-1.1,3.9,0
				l7.3,7.3c1.1,1.1,1.1,2.8,0,3.9C22.4,25.8,21.7,26.1,20.9,26.1z"/>
			<path id="Line_23" class="st1" d="M20.9,26.1c-0.7,0-1.4-0.3-1.9-0.8c-1.1-1.1-1.1-2.8,0-3.9L30.9,9.5c1.1-1.1,2.8-1.1,3.9,0
				c1.1,1.1,1.1,2.8,0,3.9L22.9,25.3C22.4,25.8,21.7,26.1,20.9,26.1z"/>
			<path id="Intersection_1" class="st1" d="M19,25.3c-1.1-1.1-1.1-2.8,0-3.9l0,0l1.9-1.9l1.9,1.9c1.1,1.1,1.1,2.8,0,3.9
				S20.1,26.4,19,25.3z"/>
		</g>
	</g>
</g>
</svg>
